<svg height="511pt" viewBox="1 -17 511.99899 511" width="511pt" xmlns="http://www.w3.org/2000/svg"><path d="m491.097656.5h-470.195312c-11.527344 0-20.902344 9.695312-20.902344 21.613281v288.785157c0 11.917968 9.375 21.613281 20.902344 21.613281h212.496094c-1.449219 3.023437-2.285157 6.375-2.363282 9.867187-.171875 7.820313 3.476563 15.265625 9.753906 19.921875l30.21875 22.410157c11.035157 8.183593 20.230469 18.300781 27.324219 30.066406l4.582031 7.605468c6.992188 11.59375 18.074219 19.769532 31.214844 23.023438l21.8125 5.40625c4.917969 1.21875 9.070313 4.28125 11.6875 8.625 5.15625 8.546875 13.332032 14.578125 23.019532 16.980469 3.003906.742187 6.039062 1.113281 9.054687 1.113281 6.71875 0 13.332031-1.824219 19.230469-5.382812l57.148437-34.453126c19.894531-11.992187 26.320313-37.929687 14.328125-57.824218-1.359375-2.25-1.960937-4.828125-1.738281-7.449219l.476563-5.613281c.132812-1.539063.304687-2.6875.46875-3.796875.894531-6 .582031-9.644531-3.613282-16.605469l-8.1875-13.894531h13.28125c11.523438 0 20.902344-9.695313 20.902344-21.613281v-288.785157c0-11.917969-9.375-21.613281-20.902344-21.613281zm-25.453125 419.882812-57.148437 34.453126c-8.101563 4.882812-18.667969 2.265624-23.550782-5.835938-5.40625-8.96875-13.980468-15.292969-24.144531-17.8125l-21.808593-5.402344c-7.898438-1.957031-14.5625-6.871094-18.761719-13.839844l-4.585938-7.605468c-8.464843-14.039063-19.429687-26.105469-32.59375-35.867188l-30.21875-22.410156c-1.019531-.757812-1.613281-1.964844-1.585937-3.238281.039062-1.75 1.25-3.277344 2.949218-3.710938 2.292969-.589843 4.617188-.882812 6.921876-.882812 4.90625 0 9.738281 1.316406 14.070312 3.882812l5.75 3.410157c8.226562 4.878906 15.625 10.972656 21.988281 18.113281l5.742188 6.445312c3.472656 3.898438 9.34375 4.511719 13.546875 1.414063 4.199218-3.097656 5.351562-8.886719 2.65625-13.355469l-73.128906-121.308594c-1.035157-1.714843-1.386719-3.742187-.988282-5.703125l.035156-.171875c.425782-2.09375 1.640626-3.890625 3.417969-5.066406 1.78125-1.179687 3.910157-1.59375 6.003907-1.164063 2.175781.445313 4.085937 1.796876 5.234374 3.699219l30.539063 50.660157c.011719.015624.019531.035156.03125.054687l27.269531 45.234375c2.882813 4.777344 9.097656 6.320312 13.875 3.4375 4.78125-2.882812 6.320313-9.097656 3.4375-13.875l-27.285156-45.261719c-.925781-1.558593-1.109375-3.425781-.5-5.132812 1.496094-4.175781 5.863281-6.476563 10.152344-5.34375 2.148437.5625 3.960937 1.921875 5.109375 3.824219l11.15625 18.511718c.011719.015625.023437.035156.035156.054688l17.703125 29.363281c2.882812 4.78125 9.09375 6.320313 13.875 3.4375 4.78125-2.878906 6.320312-9.09375 3.4375-13.875l-17.703125-29.363281c-1.585937-2.632813-2.394531-5.382813-2.40625-8.171875-.007813-1.984375.710937-3.824219 2.023437-5.1875.882813-.921875 2.425782-2.019531 4.738282-2.027344l.9375.011719c2.289062.035156 4.359375 1.226562 5.542968 3.1875l24.886719 41.28125c2.882813 4.78125 9.09375 6.320312 13.875 3.4375 4.78125-2.878906 6.320313-9.09375 3.4375-13.875l-7.960937-13.207032c-1.488282-2.472656-2.179688-5.296874-1.992188-8.171874.1875-2.898438 1.8125-5.496094 4.140625-6.621094 1.511719-.730469 3.1875-.949219 4.847657-.640625 2.179687.410156 4.085937 1.726562 5.242187 3.617187l14.046875 23.914063c.003906.007812.003906.011719.007812.015625l40.695313 69.046875c.660156 1.09375.992187 1.726562 1.15625 2.070312-.042969.339844-.113281.804688-.171875 1.203125-.183594 1.21875-.429688 2.890625-.617188 5.0625l-.476562 5.613282c-.585938 6.894531.992188 13.675781 4.566406 19.601562 6.234375 10.34375 2.894532 23.832031-7.453125 30.070312zm26.140625-109.484374c0 .949218-.550781 1.398437-.6875 1.398437h-25.195312l-8.34375-14.15625h6.558594c5.582031 0 10.109374-4.523437 10.109374-10.105469v-243.34375c0-5.582031-4.527343-10.109375-10.109374-10.109375h-43.214844c-5.585938 0-10.109375 4.527344-10.109375 10.109375 0 5.582032 4.523437 10.109375 10.109375 10.109375h33.109375v223.125h-8.371094l-.277344-.472656-14.078125-23.96875c-.019531-.03125-.039062-.066406-.058594-.097656-4.125-6.839844-10.992187-11.609375-18.84375-13.085938-5.933593-1.117187-11.941406-.320312-17.371093 2.300781-3.507813 1.695313-6.554688 4.117188-9.003907 7.050782l-1.28125-2.125c-4.804687-7.972656-13.226562-12.816406-22.527343-12.964844l-.601563-.011719c-.242187-.003906-.484375-.003906-.726562-.003906-7.335938.023437-14.171875 2.949219-19.25 8.230469-.644532.671875-1.253906 1.371094-1.820313 2.09375-3.316406-2.929688-7.296875-5.066406-11.691406-6.222656-10.496094-2.765626-21.125.539062-28.117187 7.929687l-17.234376-28.589844c-4.058593-6.726562-10.800781-11.492187-18.496093-13.066406-7.386719-1.511719-14.914063-.050781-21.203125 4.105469-6.289063 4.15625-10.578125 10.515625-12.078125 17.894531l-.035157.171875c-1.414062 6.941406-.175781 14.109375 3.484376 20.175781l18.480468 30.65625h-136.136718v-223.125h223.390624c5.582032 0 10.105469-4.527343 10.105469-10.109375 0-5.582031-4.523437-10.109375-10.105469-10.109375h-233.496093c-5.585938 0-10.109375 4.527344-10.109375 10.109375v243.34375c0 5.582032 4.523437 10.105469 10.109375 10.105469h158.425781l8.535156 14.15625h-252.726562c-.136719 0-.6875-.449219-.6875-1.398437v-288.785157c0-.949219.550781-1.398437.6875-1.398437h470.195312c.136719 0 .6875.449218.6875 1.398437zm0 0"/><path d="m57.945312 139.464844c-14.832031 0-26.894531 12.066406-26.894531 26.898437s12.0625 26.898438 26.894531 26.898438c14.832032 0 26.898438-12.066407 26.898438-26.898438s-12.066406-26.898437-26.898438-26.898437zm0 33.578125c-3.683593 0-6.679687-2.996094-6.679687-6.679688 0-3.6875 2.996094-6.683593 6.679687-6.683593 3.6875 0 6.683594 2.996093 6.683594 6.683593 0 3.683594-3 6.679688-6.683594 6.679688zm0 0"/><path d="m193.546875 68.433594c-34.160156 0-61.945313 27.789062-61.945313 61.945312s27.789063 61.945313 61.945313 61.945313 61.945313-27.789063 61.945313-61.945313-27.789063-61.945312-61.945313-61.945312zm0 103.675781c-23.011719 0-41.730469-18.722656-41.730469-41.730469 0-23.011718 18.71875-41.730468 41.730469-41.730468 23.007813 0 41.726563 18.722656 41.726563 41.730468 0 23.007813-18.71875 41.730469-41.726563 41.730469zm0 0"/><path d="m203.011719 115.101562-13.160157 13.15625-5.773437-5.773437c-3.949219-3.945313-10.347656-3.945313-14.296875 0-3.945312 3.949219-3.945312 10.347656 0 14.296875l12.921875 12.921875c1.976563 1.972656 4.5625 2.960937 7.148437 2.960937 2.585938 0 5.175782-.988281 7.148438-2.960937l20.304688-20.304687c3.949218-3.949219 3.949218-10.347657 0-14.296876-3.945313-3.949218-10.34375-3.949218-14.292969 0zm0 0"/><path d="m57.945312 220.648438c-5.582031 0-10.105468 4.523437-10.105468 10.105468v54.761719c0 5.582031 4.523437 10.109375 10.105468 10.109375 5.582032 0 10.109376-4.527344 10.109376-10.109375v-54.761719c0-5.582031-4.527344-10.105468-10.109376-10.105468zm0 0"/><path d="m57.945312 110.976562c5.582032 0 10.109376-4.523437 10.109376-10.109374v-54.761719c0-5.582031-4.527344-10.105469-10.109376-10.105469-5.582031 0-10.105468 4.523438-10.105468 10.105469v54.761719c0 5.585937 4.523437 10.109374 10.105468 10.109374zm0 0"/><path d="m397.664062 333.945312c-2.09375-5.175781-7.984374-7.675781-13.160156-5.582031-5.175781 2.09375-7.675781 7.984375-5.582031 13.160157l.136719.335937c1.589844 3.933594 5.375 6.320313 9.375 6.320313 1.261718 0 2.542968-.238282 3.785156-.738282 5.175781-2.09375 7.675781-7.984375 5.582031-13.164062zm0 0"/><path d="m370.972656 48.6875c1.589844 3.933594 5.375 6.320312 9.375 6.320312 1.261719 0 2.542969-.238281 3.785156-.742187 5.175782-2.089844 7.675782-7.984375 5.582032-13.160156l-.136719-.335938c-2.09375-5.175781-7.984375-7.671875-13.160156-5.582031-5.175781 2.09375-7.675781 7.984375-5.582031 13.164062zm0 0"/><path d="m293.664062 94.296875c-5.582031 0-10.105468 4.523437-10.105468 10.109375 0 5.582031 4.523437 10.105469 10.105468 10.105469h116.75c5.582032 0 10.109376-4.523438 10.109376-10.105469 0-5.585938-4.527344-10.109375-10.109376-10.109375zm0 0"/><path d="m410.414062 139.277344h-116.75c-5.582031 0-10.105468 4.523437-10.105468 10.109375 0 5.582031 4.523437 10.105469 10.105468 10.105469h116.75c5.582032 0 10.109376-4.523438 10.109376-10.105469 0-5.585938-4.527344-10.109375-10.109376-10.109375zm0 0"/></svg>