<svg height="511pt" viewBox="1 0 511.99871 511" width="511pt" xmlns="http://www.w3.org/2000/svg"><path d="m491.855469.5h-471.644531c-11.105469 0-20.1406255 9.035156-20.1406255 20.140625v371.8125c0 5.5625 4.5078125 10.070313 10.0703125 10.070313s10.070313-4.507813 10.070313-10.070313v-301.375h471.644531v401.207031h-471.644531v-18.90625c0-5.5625-4.507813-10.074218-10.070313-10.074218s-10.0703125 4.511718-10.0703125 10.074218v18.910156c0 11.105469 9.0351565 20.140626 20.1406255 20.140626h471.644531c11.105469 0 20.144531-9.035157 20.144531-20.140626v-471.648437c0-11.105469-9.035156-20.140625-20.144531-20.140625zm-471.644531 70.433594v-50.292969h471.644531v50.292969zm0 0"/><path d="m56.515625 42.734375c-2.085937-5.15625-7.957031-7.644531-13.113281-5.558594-5.15625 2.085938-7.644532 7.957031-5.558594 13.113281l.140625.355469c1.585937 3.917969 5.359375 6.296875 9.339844 6.296875 1.257812 0 2.539062-.238281 3.773437-.738281 5.15625-2.085937 7.644532-7.957031 5.5625-13.113281zm0 0"/><path d="m86.847656 42.734375c-2.085937-5.15625-7.957031-7.644531-13.113281-5.558594-5.15625 2.085938-7.644531 7.957031-5.558594 13.113281l.144531.355469c1.582032 3.917969 5.355469 6.296875 9.335938 6.296875 1.257812 0 2.539062-.238281 3.773438-.738281 5.15625-2.085937 7.648437-7.957031 5.5625-13.113281zm0 0"/><path d="m117.179688 42.734375c-2.085938-5.15625-7.957032-7.644531-13.113282-5.558594-5.15625 2.085938-7.644531 7.957031-5.558594 13.113281l.144532.355469c1.585937 3.917969 5.355468 6.296875 9.339844 6.296875 1.253906 0 2.535156-.238281 3.769531-.738281 5.15625-2.085937 7.648437-7.957031 5.5625-13.113281zm0 0"/><path d="m449.472656 474.046875c11.105469 0 20.140625-9.035156 20.140625-20.144531v-324.378906c0-11.105469-9.035156-20.140626-20.140625-20.140626h-386.878906c-11.105469 0-20.140625 9.035157-20.140625 20.140626v324.378906c0 11.109375 9.035156 20.144531 20.140625 20.144531zm-386.878906-344.523437h386.878906l.015625 324.378906s-.003906 0-.015625 0h-386.878906zm0 0"/><path d="m463.34375 35.71875h-70.578125c-5.5625 0-10.070313 4.507812-10.070313 10.070312s4.507813 10.070313 10.070313 10.070313h70.578125c5.5625 0 10.070312-4.507813 10.070312-10.070313s-4.507812-10.070312-10.070312-10.070312zm0 0"/><path d="m.875 437.148438c1.589844 3.914062 5.359375 6.289062 9.339844 6.289062 1.257812 0 2.542968-.238281 3.78125-.742188 5.152344-2.09375 7.636718-7.96875 5.542968-13.121093l-.132812-.332031c-2.09375-5.15625-7.964844-7.636719-13.121094-5.546876-5.152344 2.09375-7.636718 7.964844-5.542968 13.121094zm0 0"/><path d="m413.648438 163.480469h-21.761719c-5.5625 0-10.074219 4.507812-10.074219 10.070312s4.511719 10.070313 10.074219 10.070313h11.691406v79.898437h-297.101563v-79.898437h206.097657c5.5625 0 10.070312-4.507813 10.070312-10.070313s-4.507812-10.070312-10.070312-10.070312h-216.167969c-5.5625 0-10.070312 4.507812-10.070312 10.070312v100.039063c0 5.5625 4.507812 10.074218 10.070312 10.074218h317.242188c5.5625 0 10.070312-4.511718 10.070312-10.074218v-100.039063c0-5.5625-4.507812-10.070312-10.070312-10.070312zm0 0"/><path d="m238.398438 293.601562h-141.992188c-5.5625 0-10.070312 4.511719-10.070312 10.074219v100.039063c0 5.5625 4.507812 10.070312 10.070312 10.070312h141.992188c5.558593 0 10.070312-4.507812 10.070312-10.070312v-100.039063c0-5.5625-4.507812-10.074219-10.070312-10.074219zm-10.074219 100.042969h-121.847657v-79.898437h121.847657zm0 0"/><path d="m413.648438 293.601562h-141.992188c-5.5625 0-10.070312 4.511719-10.070312 10.074219v100.039063c0 5.5625 4.507812 10.070312 10.070312 10.070312h141.992188c5.5625 0 10.070312-4.507812 10.070312-10.070312v-100.039063c0-5.5625-4.507812-10.074219-10.070312-10.074219zm-10.070313 100.042969h-121.851563v-79.898437h121.851563zm0 0"/><path d="m342.984375 177.488281c1.585937 3.914063 5.355469 6.289063 9.335937 6.289063 1.257813 0 2.539063-.234375 3.777344-.738282 5.15625-2.085937 7.644532-7.960937 5.554688-13.113281l-.125-.3125c-2.089844-5.15625-7.960938-7.640625-13.117188-5.554687-5.152344 2.089844-7.640625 7.960937-5.550781 13.117187zm0 0"/></svg>