<svg height="512pt" viewBox="0 -31 512 511" width="512pt" xmlns="http://www.w3.org/2000/svg"><path d="m491.859375.5h-471.71875c-11.105469 0-20.140625 9.035156-20.140625 20.140625v279.359375c0 11.105469 9.035156 20.144531 20.140625 20.144531h169.464844v109.3125h-49.183594c-5.5625 0-10.070313 4.507813-10.070313 10.070313s4.507813 10.070312 10.070313 10.070312h235.65625c5.558594 0 10.070313-4.507812 10.070313-10.070312s-4.511719-10.070313-10.070313-10.070313h-55.042969v-109.3125h60.078125c5.558594 0 10.070313-4.511719 10.070313-10.074219s-4.511719-10.070312-10.070313-10.070312h-360.972656v-279.359375h471.71875v279.359375h-29.8125c-5.558594 0-10.070313 4.507812-10.070313 10.070312s4.511719 10.074219 10.070313 10.074219h29.8125c11.105469 0 20.140625-9.039062 20.140625-20.144531v-279.359375c0-11.105469-9.035156-20.140625-20.140625-20.140625zm-221.796875 319.644531.011719 43.265625s-.003907 0-.011719 0h-28.433594v-43.265625zm-48.578125 0v43.265625c0 11.105469 9.039063 20.144532 20.144531 20.144532h28.433594c11.105469 0 20.140625-9.039063 20.140625-20.144532v-43.265625h10.691406v109.3125h-91.148437v-109.3125zm0 0"/><path d="m471.828125 256.84375v-193.769531c0-11.109375-9.035156-20.144531-20.140625-20.144531h-391.574219c-11.105469 0-20.140625 9.035156-20.140625 20.144531v193.769531c0 11.105469 9.035156 20.140625 20.140625 20.140625h391.574219c11.105469 0 20.140625-9.035156 20.140625-20.140625zm-77.992187-118.1875h57.851562v55.441406h-57.851562zm57.851562-20.140625h-57.851562v-55.441406h57.851562zm-391.574219-55.441406h60.792969v19.566406c0 5.5625 4.507812 10.074219 10.070312 10.074219s10.070313-4.511719 10.070313-10.074219v-19.566406h232.648437v131.023437h-232.648437v-30.550781c0-5.5625-4.507813-10.070313-10.070313-10.070313s-10.070312 4.507813-10.070312 10.070313v93.296875h-60.792969zm80.933594 151.164062h129.015625v42.605469h-129.015625zm310.640625 42.605469h-161.484375v-42.605469h161.484375zm0 0"/><path d="m121.710938 127.0625c1.582031 3.925781 5.355468 6.308594 9.34375 6.308594 1.253906 0 2.53125-.234375 3.761718-.730469 5.160156-2.082031 7.65625-7.949219 5.574219-13.109375l-.148437-.371094c-2.078126-5.160156-7.945313-7.652344-13.105469-5.574218-5.160157 2.082031-7.65625 7.949218-5.574219 13.109374zm0 0"/><path d="m430.714844 306.097656c-2.09375-5.152344-7.964844-7.636718-13.121094-5.542968-5.152344 2.089843-7.632812 7.964843-5.542969 13.117187l.148438.371094c1.589843 3.914062 5.359375 6.285156 9.335937 6.285156 1.261719 0 2.542969-.238281 3.785156-.738281 5.152344-2.09375 7.636719-7.96875 5.542969-13.121094zm0 0"/></svg>