<svg height="511pt" viewBox="-38 1 511 511.99899" width="511pt" xmlns="http://www.w3.org/2000/svg"><path d="m416.863281 0h-261.722656c-10.628906 0-19.277344 9.046875-19.277344 20.167969v92.960937c-12.015625.816406-21.550781 10.828125-21.550781 23.082032 0 1.34375-.902344 2.496093-2.242188 2.875-9.351562 2.625-18.371093 6.351562-26.820312 11.074218-1.230469.6875-2.695312.511719-3.644531-.4375-9.019531-9.015625-23.691407-9.015625-32.707031 0l-11.722657 11.726563c-9.019531 9.015625-9.019531 23.691406 0 32.707031.945313.949219 1.121094 2.414062.433594 3.644531-4.722656 8.445313-8.449219 17.46875-11.074219 26.816407-.375 1.34375-1.53125 2.246093-2.910156 2.246093-12.75 0-23.125 10.375-23.125 23.128907v16.582031c0 12.75 10.375 23.125 23.160156 23.125 1.34375 0 2.5.902343 2.875 2.246093 2.625 9.347657 6.351563 18.371094 11.074219 26.816407.6875 1.234375.515625 2.699219-.433594 3.644531-9.019531 9.019531-9.019531 23.691406 0 32.707031l11.722657 11.726563c9.019531 9.015625 23.691406 9.019531 32.707031 0 .949219-.949219 2.414062-1.125 3.644531-.433594 8.449219 4.722656 17.46875 8.445312 26.820312 11.070312 1.339844.378907 2.242188 1.535157 2.242188 2.910157 0 12.21875 9.535156 22.230469 21.550781 23.046875v88.394531c0 11.121094 8.648438 20.171875 19.277344 20.171875h261.722656c10.628907 0 19.277344-9.050781 19.277344-20.171875v-471.660156c0-11.121094-8.648437-20.167969-19.277344-20.167969zm-281 323.992188c-32.003906-4.792969-56.65625-32.390626-56.65625-65.710938 0-33.316406 24.652344-60.914062 56.65625-65.707031zm20.15625-246.761719h259.964844v354.320312h-259.964844zm0-57.074219h259.964844v36.917969h-259.964844zm-21.550781 360.199219c0-10.316407-6.96875-19.480469-16.949219-22.28125-7.824219-2.195313-15.371093-5.3125-22.429687-9.261719-9.050782-5.058594-20.453125-3.503906-27.738282 3.777344-1.15625 1.15625-3.042968 1.15625-4.199218 0l-11.726563-11.726563c-1.15625-1.15625-1.15625-3.042969 0-4.203125 7.28125-7.28125 8.835938-18.683594 3.777344-27.734375-3.949219-7.0625-7.066406-14.605469-9.261719-22.429687-2.800781-9.980469-11.964844-16.953125-22.316406-16.953125-1.636719 0-2.96875-1.332031-2.96875-2.96875v-16.582031c0-1.640626 1.332031-2.972657 3.003906-2.972657 10.316406 0 19.480469-6.96875 22.28125-16.949219 2.195313-7.824218 5.3125-15.371093 9.257813-22.429687 5.058593-9.050781 3.507812-20.453125-3.773438-27.738281-1.160156-1.15625-1.160156-3.042969 0-4.199219l11.722657-11.726563c1.160156-1.15625 3.046874-1.160156 4.203124 0 7.28125 7.28125 18.6875 8.832032 27.734376 3.773438 7.0625-3.945312 14.609374-7.0625 22.429687-9.257812 9.984375-2.800782 16.953125-11.964844 16.953125-22.316407 0-1.046875.574219-1.921875 1.394531-2.453125v38.457032c-43.164062 4.917968-76.8125 41.644531-76.8125 86.101562s33.648438 81.183594 76.8125 86.101562v38.457032c-.820312-.535156-1.394531-1.417969-1.394531-2.484375zm281.515625 111.488281h-259.964844v-40.136719h259.964844zm0 0"/><path d="m386.203125 96.296875h-199.023437c-5.566407 0-10.078126 4.511719-10.078126 10.078125v296.546875c0 5.566406 4.511719 10.078125 10.078126 10.078125h199.023437c5.566406 0 10.078125-4.511719 10.078125-10.078125v-296.546875c0-5.566406-4.511719-10.078125-10.078125-10.078125zm-10.078125 296.550781h-178.867188v-276.394531h178.867188zm0 0"/><path d="m219.386719 228.585938h133.375c5.566406 0 10.078125-4.511719 10.078125-10.078126v-81.804687c0-5.5625-4.511719-10.078125-10.078125-10.078125h-133.375c-5.566407 0-10.078125 4.515625-10.078125 10.078125v81.804687c0 5.566407 4.511718 10.078126 10.078125 10.078126zm10.078125-81.804688h113.222656v61.648438h-113.222656zm0 0"/><path d="m222.335938 265.875h58.554687c5.5625 0 10.078125-4.511719 10.078125-10.078125s-4.515625-10.078125-10.078125-10.078125h-58.554687c-5.566407 0-10.078126 4.511719-10.078126 10.078125s4.511719 10.078125 10.078126 10.078125zm0 0"/><path d="m352.761719 282.597656h-130.425781c-5.566407 0-10.078126 4.511719-10.078126 10.078125 0 5.566407 4.511719 10.078125 10.078126 10.078125h130.425781c5.566406 0 10.078125-4.511718 10.078125-10.078125 0-5.566406-4.511719-10.078125-10.078125-10.078125zm0 0"/><path d="m352.761719 319.476562h-130.425781c-5.566407 0-10.078126 4.511719-10.078126 10.078126 0 5.5625 4.511719 10.078124 10.078126 10.078124h130.425781c5.566406 0 10.078125-4.515624 10.078125-10.078124 0-5.566407-4.511719-10.078126-10.078125-10.078126zm0 0"/><path d="m280.886719 356.355469h-58.554688c-5.5625 0-10.078125 4.511719-10.078125 10.078125 0 5.5625 4.515625 10.078125 10.078125 10.078125h58.554688c5.566406 0 10.078125-4.515625 10.078125-10.078125 0-5.566406-4.511719-10.078125-10.078125-10.078125zm0 0"/><path d="m301.441406 28.535156h-29.222656c-5.566406 0-10.078125 4.515625-10.078125 10.078125 0 5.566407 4.511719 10.078125 10.078125 10.078125h29.222656c5.566406 0 10.078125-4.511718 10.078125-10.078125 0-5.5625-4.511719-10.078125-10.078125-10.078125zm0 0"/><path d="m276.746094 475.773438c1.589844 3.921874 5.363281 6.296874 9.34375 6.296874 1.261718 0 2.542968-.238281 3.78125-.738281 5.160156-2.089843 7.648437-7.964843 5.558594-13.125l-.175782-.429687c-2.089844-5.15625-7.964844-7.644532-13.121094-5.558594-5.160156 2.089844-7.648437 7.964844-5.558593 13.125zm0 0"/><path d="m331.4375 362.433594c-2.089844-5.160156-7.96875-7.644532-13.125-5.558594-5.15625 2.089844-7.644531 7.964844-5.554688 13.125l.171876.429688c1.589843 3.921874 5.363281 6.296874 9.34375 6.296874 1.261718 0 2.542968-.234374 3.78125-.738281 5.160156-2.089843 7.648437-7.964843 5.558593-13.125zm0 0"/></svg>