<svg height="511pt" viewBox="1 -29 511.99899 511" width="511pt" xmlns="http://www.w3.org/2000/svg"><path d="m148.941406 71.214844h-65.265625c-5.578125 0-10.101562 4.523437-10.101562 10.097656v115.390625c0 5.578125 4.523437 10.101563 10.101562 10.101563h65.265625c5.578125 0 10.097656-4.523438 10.097656-10.101563v-115.390625c0-5.574219-4.519531-10.097656-10.097656-10.097656zm-10.101562 115.390625h-45.066406v-95.191407h45.070312v95.191407zm0 0"/><path d="m185.488281 91.414062h32.894531c5.578126 0 10.101563-4.523437 10.101563-10.101562 0-5.574219-4.523437-10.097656-10.101563-10.097656h-32.894531c-5.578125 0-10.097656 4.523437-10.097656 10.097656 0 5.578125 4.519531 10.101562 10.097656 10.101562zm0 0"/><path d="m293.570312 102.542969h-108.082031c-5.578125 0-10.097656 4.523437-10.097656 10.101562 0 5.574219 4.519531 10.097657 10.097656 10.097657h108.082031c5.578126 0 10.097657-4.523438 10.097657-10.097657 0-5.578125-4.519531-10.101562-10.097657-10.101562zm0 0"/><path d="m293.570312 133.871094h-108.082031c-5.578125 0-10.097656 4.523437-10.097656 10.097656 0 5.578125 4.519531 10.101562 10.097656 10.101562h108.082031c5.578126 0 10.097657-4.523437 10.097657-10.101562 0-5.574219-4.519531-10.097656-10.097657-10.097656zm0 0"/><path d="m233.527344 165.199219h-48.039063c-5.578125 0-10.097656 4.519531-10.097656 10.097656s4.519531 10.097656 10.097656 10.097656h48.039063c5.578125 0 10.097656-4.519531 10.097656-10.097656s-4.519531-10.097656-10.097656-10.097656zm0 0"/><path d="m501.902344 65.992188h-57.785156v-44.949219c0-11.328125-9.214844-20.542969-20.539063-20.542969h-403.035156c-11.328125 0-20.542969 9.214844-20.542969 20.542969v235.9375c0 11.324219 9.214844 20.539062 20.542969 20.539062h142.875v91.378907h-40.972657c-5.578124 0-10.101562 4.519531-10.101562 10.097656s4.523438 10.097656 10.101562 10.097656h203.105469c5.578125 0 10.097657-4.519531 10.097657-10.097656s-4.519532-10.097656-10.097657-10.097656h-46.019531v-91.378907h144.042969c11.328125 0 20.542969-9.214843 20.542969-20.539062v-44.953125h57.78125c5.578124 0 10.101562-4.523438 10.101562-10.101563v-125.832031c0-5.578125-4.519531-10.101562-10.097656-10.101562zm-242.570313 302.90625h-75.71875v-91.378907h12.484375v34.453125c0 11.136719 9.0625 20.199219 20.199219 20.199219h11.253906c11.140625 0 20.199219-9.0625 20.199219-20.199219v-34.453125h11.582031zm-31.765625-56.925782s-.003906 0-.015625 0h-11.253906v-34.453125h11.257813zm196.351563-54.992187c0 .1875-.152344.339843-.339844.339843h-403.035156c-.191407 0-.34375-.152343-.34375-.339843v-235.9375c0-.191407.152343-.34375.34375-.34375h403.03125c.191406 0 .34375.152343.34375.34375v44.949219h-14.421875v-9.691407c0-11.328125-9.214844-20.542969-20.542969-20.542969h-333.960937c-11.324219 0-20.539063 9.214844-20.539063 20.542969v163.480469c0 11.328125 9.214844 20.542969 20.539063 20.542969h333.964843c11.324219 0 20.539063-9.214844 20.539063-20.542969v-7.753906h14.421875zm-92.582031-44.953125h57.960937v7.753906c0 .191406-.152344.34375-.34375.34375h-333.960937c-.1875 0-.34375-.152344-.34375-.34375v-163.480469c0-.191406.15625-.34375.34375-.34375h333.964843c.1875 0 .34375.152344.34375.34375v9.691407h-57.960937c-5.578125 0-10.101563 4.523437-10.101563 10.101562v125.832031c0 5.578125 4.523438 10.101563 10.097657 10.101563zm160.464843-20.199219h-150.363281v-105.636719h150.363281zm0 0"/><path d="m371.890625 177.042969h89.804687c5.578126 0 10.101563-4.523438 10.101563-10.097657v-55.347656c0-5.574218-4.523437-10.097656-10.101563-10.097656h-89.804687c-5.578125 0-10.097656 4.523438-10.097656 10.097656v55.347656c0 5.574219 4.519531 10.097657 10.097656 10.097657zm10.097656-55.34375h69.609375v35.144531h-69.609375zm0 0"/><path d="m482.835938 383.921875 9.933593-5.1875c3.121094-1.628906 5.167969-4.765625 5.40625-8.277344.234375-3.511719-1.375-6.894531-4.25-8.925781l-78.789062-55.65625c-3.214844-2.269531-7.460938-2.46875-10.871094-.5-3.410156 1.964844-5.367187 5.734375-5.015625 9.65625l8.667969 96.074219c.3125 3.460937 2.378906 6.515625 5.476562 8.09375 3.09375 1.578125 6.78125 1.453125 9.761719-.332031l9.523438-5.6875 20.617187 35.738281c1.351563 2.339843 3.585937 4.042969 6.203125 4.726562.839844.214844 1.691406.324219 2.542969.324219 1.808593 0 3.597656-.484375 5.175781-1.425781l32.738281-19.539063c4.757813-2.839844 6.339844-8.988281 3.539063-13.773437zm-17.164063 46.019531-20.621094-35.738281c-1.355469-2.34375-3.589843-4.046875-6.207031-4.726563-.835938-.21875-1.691406-.328124-2.542969-.328124-1.808593 0-3.601562.488281-5.179687 1.433593l-4.527344 2.703125-5.261719-58.304687 47.425781 33.503906-4.664062 2.433594c-2.453125 1.28125-4.269531 3.507812-5.035156 6.160156-.761719 2.65625-.40625 5.511719.988281 7.894531l20.960937 35.816406zm0 0"/><path d="m285.089844 171.324219c-2.097656-5.167969-7.988282-7.652344-13.15625-5.558594-5.167969 2.097656-7.65625 7.988281-5.558594 13.15625l.140625.347656c1.59375 3.925781 5.371094 6.300781 9.359375 6.300781 1.265625 0 2.550781-.238281 3.796875-.742187 5.167969-2.097656 7.65625-7.988281 5.558594-13.15625zm0 0"/></svg>